<?xml version="1.0" encoding="utf-8"?>
<!-- Generator: Adobe Illustrator 19.1.0, SVG Export Plug-In . SVG Version: 6.00 Build 0)  -->
<svg version="1.1" id="Layer_1" xmlns="http://www.w3.org/2000/svg" xmlns:xlink="http://www.w3.org/1999/xlink" x="0px" y="0px"
	 viewBox="0 0 500 420" style="enable-background:new 0 0 500 420;" xml:space="preserve">
<style type="text/css">
	.st0{clip-path:url(#SVGID_2_);}
	.st1{fill:#AED137;}
	.st2{clip-path:url(#SVGID_4_);}
	.st3{fill:#ABD038;}
	.st4{fill:#94C93D;}
	.st5{fill:#EDEDED;}
	.st6{clip-path:url(#SVGID_6_);}
	.st7{fill:#747474;}
	.st8{fill:#535252;}
	.st9{fill:#404040;}
	.st10{fill:#D1D2D1;}
	.st11{fill:#AFAFAF;}
	.st12{fill:#E4EEBC;}
	.st13{fill:#79352D;}
	.st14{fill:#6E2E25;}
	.st15{fill:#EAEAEA;}
	.st16{fill:#C9EAF2;}
	.st17{fill:#87C4D2;}
	.st18{fill:#96CDD8;}
	.st19{fill:#B6D9DF;}
	.st20{fill:#BDDEE6;}
	.st21{fill:#80BABF;}
	.st22{fill:#CFCFCE;}
	.st23{fill:#757575;}
	.st24{fill:#2E3132;}
	.st25{fill:#ABA9AA;}
	.st26{fill:#AEAEAE;}
	.st27{fill:#D96C53;}
	.st28{fill:#9F4537;}
	.st29{fill:#984238;}
	.st30{fill:#6E302A;}
	.st31{fill:#89362A;}
	.st32{fill:#BF604A;}
	.st33{fill:#853A2C;}
	.st34{fill:#7F392E;}
	.st35{fill:#682D23;}
	.st36{fill:#A9CDD1;}
	.st37{fill:#7BB4B9;}
	.st38{fill:#1C4D57;}
	.st39{fill:#87382D;}
	.st40{fill:#51241E;}
	.st41{fill:#A84C39;}
	.st42{fill:#FFFFFF;}
	.st43{fill:#009345;}
	.st44{fill:#8BC53F;}
	.st45{fill:#80C242;}
	.st46{fill:#37B34A;}
</style>
<g>
	<g>
		<g>
			<g>
				<g>
					<defs>
						<circle id="SVGID_1_" cx="250" cy="209.4" r="209.4"/>
					</defs>
					<clipPath id="SVGID_2_">
						<use xlink:href="#SVGID_1_"  style="overflow:visible;"/>
					</clipPath>
					<g class="st0">
						<rect x="0.5" y="-15.6" class="st1" width="499" height="334.7"/>
					</g>
				</g>
			</g>
		</g>
		<g>
			<g>
				<g>
					<defs>
						<circle id="SVGID_3_" cx="250" cy="209.4" r="209.4"/>
					</defs>
					<clipPath id="SVGID_4_">
						<use xlink:href="#SVGID_3_"  style="overflow:visible;"/>
					</clipPath>
					<g class="st2">
						<g>
							<rect x="190.1" y="150.4" class="st3" width="6.9" height="178.1"/>
						</g>
						<g>
							<rect x="292.7" y="181.9" class="st3" width="264.7" height="146.5"/>
						</g>
						<g>
							<rect x="-1.6" y="219" class="st3" width="29.8" height="109.4"/>
						</g>
						<g>
							<polygon class="st3" points="100.8,171.4 100.8,163.6 94.5,163.6 94.5,157.6 88.8,157.6 88.8,150.4 47.3,150.4 47.3,157.6 
								41.6,157.6 41.6,163.6 35.2,163.6 35.2,171.4 28.2,171.4 28.2,328.4 107.9,328.4 107.9,171.4 							"/>
						</g>
						<g>
							<polygon class="st3" points="510.9,153.5 510.9,145.7 504.5,145.7 504.5,139.7 498.8,139.7 498.8,132.5 457.3,132.5 
								457.3,139.7 451.6,139.7 451.6,145.7 445.3,145.7 445.3,153.5 438.2,153.5 438.2,328.4 517.9,328.4 517.9,153.5 							"/>
						</g>
						<g>
							<polygon class="st3" points="284.2,139.6 284.2,130.2 276.6,130.2 276.6,123 213,123 213,130.2 205.4,130.2 205.4,139.6 
								197,139.6 197,328.4 292.7,328.4 292.7,139.6 							"/>
						</g>
						<g>
							<polygon class="st3" points="181.6,119.1 181.6,109.8 174,109.8 174,102.6 154.6,102.6 148.8,77.8 142.4,102.6 123.7,102.6 
								123.7,109.8 116.1,109.8 116.1,119.1 107.6,119.1 107.6,328.4 190.1,328.4 190.1,119.1 							"/>
						</g>
						<g>
							<polygon class="st3" points="-7.3,174.7 -7.3,167.3 -25.6,167.3 -29.5,150.5 -33.8,167.3 -51.6,167.3 -51.6,174.7 
								-57.4,174.7 -57.4,328.4 -1.6,328.4 -1.6,174.7 							"/>
						</g>
						<g>
							<polygon class="st3" points="312.6,64.2 312.6,328.4 359,328.4 359,74.6 334,74.6 							"/>
						</g>
						<g>
							<path class="st3" d="M427.1,121.3c-5.7-9.6-16.2-16-28.2-16s-22.4,6.4-28.2,16h-6.3v207.1h68.9V121.3H427.1z"/>
						</g>
					</g>
				</g>
			</g>
		</g>
	</g>
	<g>
		<g>
			<path class="st4" d="M122.1,126.9c-1.5,0-3,0.4-4.2,1c-0.5-8.2-7.3-14.7-15.7-14.7c-2,0-3.9,0.4-5.7,1.1
				c-2.6-6.6-9-11.3-16.6-11.3c-9.6,0-17.5,7.6-17.8,17.2l0,0c-7.3,0-13.3,6-13.3,13.3s6,13.3,13.3,13.3h60.1c5.5,0,9.9-4.4,9.9-9.9
				C132,131.3,127.6,126.9,122.1,126.9z M88.6,136.8h-0.9c0.2-0.1,0.5-0.2,0.7-0.4C88.5,136.5,88.5,136.6,88.6,136.8z"/>
			<path class="st5" d="M118.5,123.6c-1.5,0-3,0.4-4.2,1c-0.5-8.2-7.3-14.7-15.7-14.7c-2,0-3.9,0.4-5.7,1.1
				c-2.6-6.6-9-11.3-16.6-11.3c-9.6,0-17.5,7.6-17.8,17.2l0,0c-7.3,0-13.3,6-13.3,13.3s6,13.3,13.3,13.3h60.1c5.5,0,9.9-4.4,9.9-9.9
				C128.4,128,124,123.6,118.5,123.6z M85,133.5h-0.9c0.2-0.1,0.5-0.2,0.7-0.4C84.9,133.3,84.9,133.4,85,133.5z"/>
		</g>
		<g>
			<path class="st4" d="M439.1,97.8c-0.7,0-1.4,0.1-2.1,0.1c-2.4-8.2-10-14.2-19.1-14.2c-8.2,0-15.2,5-18.3,12.1
				c-1.8-0.7-3.7-1.1-5.8-1.1c-6.3,0-11.7,3.7-14.2,9.1c-1.7-0.8-3.5-1.2-5.4-1.2c-5.5,0-10.1,3.4-11.9,8.2c-1.2-0.6-2.6-0.9-4-0.9
				c-5.3,0-9.6,4.3-9.6,9.6c0,5.3,4.3,9.6,9.6,9.6h80.8c8.7,0,15.7-7,15.7-15.7C454.8,104.8,447.8,97.8,439.1,97.8z"/>
			<path class="st5" d="M434.7,93.8c-0.7,0-1.4,0.1-2.1,0.1c-2.4-8.2-10-14.2-19.1-14.2c-8.2,0-15.2,5-18.3,12.1
				c-1.8-0.7-3.7-1.1-5.8-1.1c-6.3,0-11.7,3.7-14.2,9.1c-1.7-0.8-3.5-1.2-5.4-1.2c-5.5,0-10.1,3.4-11.9,8.2c-1.2-0.6-2.6-0.9-4-0.9
				c-5.3,0-9.6,4.3-9.6,9.6c0,5.3,4.3,9.6,9.6,9.6h80.8c8.7,0,15.7-7,15.7-15.7C450.4,100.8,443.4,93.8,434.7,93.8z"/>
		</g>
		<g>
			<path class="st4" d="M306.3,74.1c-1.4-10.5-10.3-18.5-21.1-18.5c-0.1,0-0.1,0-0.2,0c-5.4-11.5-17.1-19.4-30.7-19.4
				c-11.4,0-21.4,5.6-27.6,14.1c-1.4-0.2-2.8-0.4-4.2-0.4c-10.3,0-19.1,6.4-22.5,15.5c-0.8-0.1-1.5-0.2-2.3-0.2c-8.3,0-15,6.7-15,15
				s6.7,15,15,15c3.4,0,6.5-1.1,9-3c4.2,3.7,9.8,6,15.9,6c3.5,0,6.9-0.8,9.9-2.1c5.9,5,13.6,8,21.9,8c8.3,0,15.9-3,21.8-8
				c2.8,1.3,5.8,2,9.1,2c4.2,0,8.2-1.2,11.5-3.4c2.2,2.1,5.1,3.3,8.3,3.3c6.7,0,12-5.4,12-12C317,79.8,312.3,74.7,306.3,74.1z"/>
			<path class="st5" d="M300.9,69.2c-1.4-10.5-10.3-18.5-21.1-18.5c-0.1,0-0.1,0-0.2,0c-5.4-11.5-17.1-19.4-30.7-19.4
				c-11.4,0-21.4,5.6-27.6,14.1c-1.4-0.2-2.8-0.4-4.2-0.4c-10.3,0-19.1,6.4-22.5,15.5c-0.8-0.1-1.5-0.2-2.3-0.2c-8.3,0-15,6.7-15,15
				s6.7,15,15,15c3.4,0,6.5-1.1,9-3c4.2,3.7,9.8,6,15.9,6c3.5,0,6.9-0.8,9.9-2.1c5.9,5,13.6,8,21.9,8c8.3,0,15.9-3,21.8-8
				c2.8,1.3,5.8,2,9.1,2c4.2,0,8.2-1.2,11.5-3.4c2.2,2.1,5.1,3.3,8.3,3.3c6.7,0,12-5.4,12-12C311.7,75,307,69.9,300.9,69.2z"/>
		</g>
	</g>
	<g>
		<g>
			<g>
				<g>
					<defs>
						<rect id="SVGID_5_" y="341.3" width="500" height="78.7"/>
					</defs>
					<clipPath id="SVGID_6_">
						<use xlink:href="#SVGID_5_"  style="overflow:visible;"/>
					</clipPath>
					<g id="Jalanan" class="st6">
						<g>
							<g>
								<rect x="-45.1" y="341.3" class="st7" width="589.1" height="26.9"/>
							</g>
							<rect x="-45.1" y="368.1" class="st8" width="589.1" height="51.9"/>
						</g>
						<g id="Trotoar">
							<g>
								<g>
									<rect x="-27" y="362.8" class="st9" width="14.3" height="5.3"/>
								</g>
								<g>
									<rect x="-12.7" y="362.8" class="st10" width="14.3" height="5.3"/>
								</g>
								<g>
									<rect x="1.6" y="362.8" class="st9" width="14.3" height="5.3"/>
								</g>
								<g>
									<rect x="15.9" y="362.8" class="st10" width="14.3" height="5.3"/>
								</g>
								<g>
									<rect x="30.2" y="362.8" class="st9" width="14.3" height="5.3"/>
								</g>
								<g>
									<rect x="44.5" y="362.8" class="st10" width="14.3" height="5.3"/>
								</g>
								<g>
									<rect x="58.8" y="362.8" class="st9" width="14.3" height="5.3"/>
								</g>
								<g>
									<rect x="73.1" y="362.8" class="st10" width="14.3" height="5.3"/>
								</g>
								<g>
									<rect x="87.4" y="362.8" class="st9" width="14.3" height="5.3"/>
								</g>
								<g>
									<rect x="101.7" y="362.8" class="st10" width="14.3" height="5.3"/>
								</g>
								<g>
									<rect x="116" y="362.8" class="st9" width="14.3" height="5.3"/>
								</g>
								<g>
									<rect x="130.3" y="362.8" class="st10" width="14.3" height="5.3"/>
								</g>
								<g>
									<rect x="144.6" y="362.8" class="st9" width="14.3" height="5.3"/>
								</g>
								<g>
									<rect x="158.9" y="362.8" class="st10" width="14.3" height="5.3"/>
								</g>
								<g>
									<rect x="201.8" y="362.8" class="st9" width="14.3" height="5.3"/>
								</g>
								<g>
									<rect x="173.2" y="362.8" class="st9" width="14.3" height="5.3"/>
								</g>
								<g>
									<rect x="187.5" y="362.8" class="st10" width="14.3" height="5.3"/>
								</g>
							</g>
							<g>
								<g>
									<rect x="282.7" y="362.8" class="st9" width="14.3" height="5.3"/>
								</g>
								<g>
									<rect x="297" y="362.8" class="st10" width="14.3" height="5.3"/>
								</g>
								<g>
									<rect x="311.3" y="362.8" class="st9" width="14.3" height="5.3"/>
								</g>
								<g>
									<rect x="325.6" y="362.8" class="st10" width="14.3" height="5.3"/>
								</g>
								<g>
									<rect x="339.9" y="362.8" class="st9" width="14.3" height="5.3"/>
								</g>
								<g>
									<rect x="354.2" y="362.8" class="st10" width="14.3" height="5.3"/>
								</g>
								<g>
									<rect x="368.5" y="362.8" class="st9" width="14.3" height="5.3"/>
								</g>
								<g>
									<rect x="382.8" y="362.8" class="st10" width="14.3" height="5.3"/>
								</g>
								<g>
									<rect x="397.1" y="362.8" class="st9" width="14.3" height="5.3"/>
								</g>
								<g>
									<rect x="411.4" y="362.8" class="st10" width="14.3" height="5.3"/>
								</g>
								<g>
									<rect x="425.7" y="362.8" class="st9" width="14.3" height="5.3"/>
								</g>
								<g>
									<rect x="440" y="362.8" class="st10" width="14.3" height="5.3"/>
								</g>
								<g>
									<rect x="454.4" y="362.8" class="st9" width="14.3" height="5.3"/>
								</g>
								<g>
									<rect x="468.7" y="362.8" class="st10" width="14.3" height="5.3"/>
								</g>
								<g>
									<rect x="511.6" y="362.8" class="st9" width="14.3" height="5.3"/>
								</g>
								<g>
									<rect x="482.9" y="362.8" class="st9" width="14.3" height="5.3"/>
								</g>
								<g>
									<rect x="497.3" y="362.8" class="st10" width="14.3" height="5.3"/>
								</g>
							</g>
						</g>
						<g>
							<g>
								<rect x="219.7" y="365.5" class="st11" width="59.3" height="2.7"/>
							</g>
							<g>
								<rect x="219.7" y="371.4" class="st11" width="59.3" height="2.7"/>
							</g>
							<g>
								<rect x="219.7" y="376.8" class="st11" width="59.3" height="2.7"/>
							</g>
						</g>
						<g>
							<g>
								<rect x="51.8" y="380.8" class="st11" width="138.4" height="1.6"/>
							</g>
							<g>
								<rect x="51.8" y="400.4" class="st11" width="138.4" height="1.6"/>
							</g>
							<g>
								<rect x="307.9" y="380.8" class="st11" width="138.4" height="1.6"/>
							</g>
							<g>
								<rect x="307.9" y="400.4" class="st11" width="138.4" height="1.6"/>
							</g>
							<g>
								<rect x="-45.1" y="380.8" class="st11" width="43.1" height="1.6"/>
							</g>
							<g>
								<rect x="-45.1" y="400.4" class="st11" width="43.1" height="1.6"/>
							</g>
							<g>
								<rect x="500.9" y="380.8" class="st11" width="43.1" height="1.6"/>
							</g>
							<g>
								<rect x="500.9" y="400.4" class="st11" width="43.1" height="1.6"/>
							</g>
						</g>
					</g>
				</g>
			</g>
		</g>
	</g>
	<g>
		<g id="Gedung_LO">
			<g>
				<rect x="133" y="158.5" class="st12" width="234.1" height="193"/>
			</g>
			<g id="Gedung_Kiri_2">
				<g id="Lantai_2_">
					<g>
						<polygon class="st13" points="115.3,344.7 12.9,344.6 12.9,327.4 115.3,327.6 						"/>
					</g>
					<g>
						<g>
							<rect x="12.9" y="327.6" class="st14" width="102.4" height="1.1"/>
						</g>
						<g>
							<rect x="45.6" y="327.6" class="st14" width="1.2" height="17.1"/>
						</g>
						<g>
							<rect x="79.8" y="327.6" class="st14" width="1.2" height="17.1"/>
						</g>
						<g>
							<rect x="114.1" y="327.6" class="st14" width="1.2" height="17.1"/>
						</g>
					</g>
				</g>
				<g id="Dinding_5_">
					<g id="Dinding_10_">
						<rect x="12.9" y="234.5" class="st15" width="101.2" height="93"/>
					</g>
					<g id="Jendela_2_">
						<rect x="12.9" y="276.9" class="st16" width="102.4" height="50.6"/>
					</g>
					<g>
						<g>
							<g>
								<path class="st17" d="M72.7,293.6H47.3c-0.3,0-0.5-0.2-0.5-0.5l0,0c0-0.3,0.2-0.5,0.5-0.5h25.4c0.3,0,0.5,0.2,0.5,0.5l0,0
									C73.2,293.4,73,293.6,72.7,293.6z"/>
							</g>
							<g>
								<path class="st17" d="M72.7,300.4H47.3c-0.3,0-0.5-0.2-0.5-0.5l0,0c0-0.3,0.2-0.5,0.5-0.5h25.4c0.3,0,0.5,0.2,0.5,0.5l0,0
									C73.2,300.2,73,300.4,72.7,300.4z"/>
							</g>
							<g>
								<rect x="47.9" y="294.4" class="st17" width="23.8" height="4.4"/>
							</g>
							<g>
								<rect x="47.9" y="307.2" class="st17" width="23.8" height="5.5"/>
							</g>
							<g>
								<rect x="47.9" y="301.2" class="st17" width="23.8" height="3.6"/>
							</g>
							<g>
								<rect x="47.9" y="313.5" class="st17" width="23.8" height="4"/>
							</g>
							<g>
								<rect x="47.9" y="319.9" class="st17" width="23.8" height="4.4"/>
							</g>
							<g>
								<rect x="47.9" y="298.7" class="st18" width="23.8" height="0.8"/>
							</g>
							<g>
								<rect x="47.9" y="293.6" class="st18" width="23.8" height="0.8"/>
							</g>
							<g>
								<rect x="47.9" y="300.4" class="st18" width="23.8" height="0.8"/>
							</g>
							<g>
								<rect x="47.9" y="304.8" class="st18" width="23.8" height="0.8"/>
							</g>
							<g>
								<rect x="47.9" y="312.7" class="st18" width="23.8" height="0.8"/>
							</g>
							<g>
								<rect x="47.9" y="311.1" class="st18" width="23.8" height="0.8"/>
							</g>
							<g>
								<rect x="47.9" y="317.5" class="st18" width="23.8" height="0.8"/>
							</g>
							<g>
								<rect x="47.9" y="319.1" class="st18" width="23.8" height="0.8"/>
							</g>
							<g>
								<rect x="47.9" y="324.3" class="st18" width="23.8" height="0.8"/>
							</g>
							<g>
								<rect x="47.9" y="306.5" class="st18" width="23.8" height="0.8"/>
							</g>
							<g>
								<path class="st17" d="M72.7,306.5H47.3c-0.3,0-0.5-0.2-0.5-0.5l0,0c0-0.3,0.2-0.5,0.5-0.5h25.4c0.3,0,0.5,0.2,0.5,0.5l0,0
									C73.2,306.2,73,306.5,72.7,306.5z"/>
							</g>
							<g>
								<path class="st17" d="M72.7,319.1H47.3c-0.3,0-0.5-0.2-0.5-0.5l0,0c0-0.3,0.2-0.5,0.5-0.5h25.4c0.3,0,0.5,0.2,0.5,0.5l0,0
									C73.2,318.9,73,319.1,72.7,319.1z"/>
							</g>
							<g>
								<path class="st17" d="M72.7,312.7H47.3c-0.3,0-0.5-0.2-0.5-0.5l0,0c0-0.3,0.2-0.5,0.5-0.5h25.4c0.3,0,0.5,0.2,0.5,0.5l0,0
									C73.2,312.5,73,312.7,72.7,312.7z"/>
							</g>
							<g>
								<path class="st17" d="M72.2,327.6H47.9c-0.6,0-1-0.6-1-1.2v-0.3c0-0.6,0.5-1,1-1h24.3c0.6,0,1,0.5,1,1v0.3
									C73.2,327,72.7,327.6,72.2,327.6z"/>
							</g>
						</g>
						<g>
							<g>
								<rect x="73.5" y="291.2" class="st17" width="21.3" height="36.4"/>
							</g>
							<g>
								<g>
									<rect x="75.8" y="299.5" class="st19" width="17.8" height="6.9"/>
								</g>
								<g>
									<rect x="75.8" y="307.3" class="st19" width="17.8" height="6.9"/>
								</g>
								<g>
									<rect x="75.8" y="315.4" class="st19" width="17.8" height="6.9"/>
								</g>
								<g>
									<rect x="75.8" y="323.1" class="st19" width="17.8" height="4.5"/>
								</g>
							</g>
							<g>
								<path class="st20" d="M74.7,325.8L74.7,325.8c-0.2,0-0.3-0.1-0.3-0.3v-19.9c0-0.2,0.1-0.3,0.3-0.3l0,0
									c0.2,0,0.3,0.1,0.3,0.3v19.9C75,325.7,74.9,325.8,74.7,325.8z"/>
							</g>
							<g>
								<path class="st21" d="M83.1,311.3c0,1.6-1.3,2.9-2.9,2.9s-2.9-1.3-2.9-2.9s1.3-2.9,2.9-2.9v2.9H83.1z"/>
							</g>
							<g>
								<circle class="st21" cx="79.7" cy="303.7" r="2.7"/>
							</g>
							<g>
								<circle class="st21" cx="79.7" cy="319.1" r="3.2"/>
							</g>
						</g>
					</g>
					<g>
						<g>
							<rect x="12.9" y="295.4" class="st22" width="15.8" height="15.3"/>
						</g>
						<g>
							<rect x="81.2" y="312" class="st22" width="32.5" height="15.6"/>
						</g>
						<g>
							<rect x="12.9" y="312.1" class="st22" width="32.5" height="15.5"/>
						</g>
						<g>
							<rect x="47" y="312.1" class="st22" width="32.6" height="15.5"/>
						</g>
						<g>
							<rect x="12.9" y="310.5" class="st23" width="15.8" height="1.6"/>
						</g>
						<g>
							<rect x="45.4" y="312.1" class="st23" width="1.6" height="15.5"/>
						</g>
						<g>
							<rect x="79.6" y="312.1" class="st23" width="1.6" height="15.5"/>
						</g>
					</g>
					<g id="Bingkai_Jendela_2_">
						<g>
							<rect x="12.9" y="276.7" class="st24" width="102.4" height="1.6"/>
						</g>
						<g>
							<rect x="12.9" y="293.8" class="st24" width="102.4" height="1.6"/>
						</g>
						<g>
							<rect x="62.4" y="276.7" class="st24" width="1.6" height="35.4"/>
						</g>
						<g>
							<rect x="45.4" y="276.7" class="st24" width="1.6" height="35.4"/>
						</g>
						<g>
							<rect x="28.6" y="276.7" class="st24" width="1.1" height="35.4"/>
						</g>
						<g>
							<rect x="79.6" y="276.7" class="st24" width="1.6" height="35.4"/>
						</g>
						<g>
							<rect x="96.2" y="276.7" class="st24" width="1.6" height="35.4"/>
						</g>
						<g>
							<rect x="113.7" y="276.7" class="st24" width="1.6" height="50.9"/>
						</g>
						<g>
							<rect x="28.6" y="310.5" class="st24" width="86.7" height="1.6"/>
						</g>
					</g>
					<g>
						<g>
							<rect x="113.9" y="260.4" class="st25" width="1.4" height="16.3"/>
						</g>
						<g>
							<rect x="79.7" y="260.4" class="st26" width="1.4" height="16.3"/>
						</g>
						<g>
							<rect x="45.5" y="260.4" class="st26" width="1.4" height="16.3"/>
						</g>
						<g>
							<rect x="12.9" y="275.7" class="st25" width="102.4" height="1"/>
						</g>
					</g>
				</g>
				<g id="Atap_3_">
					<g>
						<g>
							<rect x="1" y="231.4" class="st27" width="32.4" height="32.3"/>
						</g>
						<g>
							<rect x="1" y="246.4" class="st28" width="32.4" height="1.9"/>
						</g>
					</g>
					<g>
						<g>
							<rect x="33.4" y="234.5" class="st29" width="82" height="26"/>
						</g>
						<g>
							<rect x="33.4" y="234.5" class="st30" width="6.5" height="26"/>
						</g>
						<g>
							<rect x="58.2" y="234.5" class="st31" width="0.9" height="26"/>
						</g>
						<g>
							<rect x="86.3" y="234.5" class="st31" width="0.9" height="26"/>
						</g>
						<g>
							<rect x="114.5" y="234.5" class="st31" width="0.9" height="26"/>
						</g>
						<g>
							<rect x="39.8" y="247.1" class="st31" width="75.5" height="0.9"/>
						</g>
						<g>
							<rect x="39.8" y="259.7" class="st31" width="75.5" height="0.9"/>
						</g>
						<g>
							<rect x="39.8" y="234.5" class="st31" width="75.5" height="0.9"/>
						</g>
					</g>
				</g>
			</g>
			<g id="Gedung_Kiri_1">
				<g id="Lantai">
					<g>
						<rect x="93.4" y="331.6" class="st13" width="98.7" height="19.9"/>
					</g>
					<g>
						<g>
							<rect x="93.4" y="331.6" class="st14" width="98.7" height="1.3"/>
						</g>
						<g>
							<rect x="131.5" y="331.6" class="st14" width="1.4" height="19.9"/>
						</g>
						<g>
							<rect x="171.2" y="331.6" class="st14" width="1.4" height="19.9"/>
						</g>
					</g>
				</g>
				<g id="Dinding_4_">
					<g id="Dinding_3_">
						<rect x="93.4" y="223.4" class="st15" width="98.6" height="108.1"/>
					</g>
					<g id="Jendela">
						<rect x="93.4" y="272.4" class="st16" width="98.7" height="59.2"/>
					</g>
					<g>
						<g>
							<rect x="93.4" y="294.2" class="st22" width="18.3" height="17.5"/>
						</g>
						<g>
							<rect x="93.4" y="313.6" class="st22" width="37.8" height="18"/>
						</g>
					</g>
					<g>
						<g>
							<g>
								<path class="st17" d="M163,292.1h-29.5c-0.3,0-0.5-0.2-0.5-0.5l0,0c0-0.3,0.2-0.5,0.5-0.5H163c0.3,0,0.5,0.2,0.5,0.5l0,0
									C163.5,291.8,163.3,292.1,163,292.1z"/>
							</g>
							<g>
								<path class="st17" d="M163,300h-29.5c-0.3,0-0.5-0.2-0.5-0.5l0,0c0-0.3,0.2-0.5,0.5-0.5H163c0.3,0,0.5,0.2,0.5,0.5l0,0
									C163.5,299.8,163.3,300,163,300z"/>
							</g>
							<g>
								<rect x="134.2" y="293" class="st17" width="27.7" height="5.1"/>
							</g>
							<g>
								<rect x="134.2" y="307.9" class="st17" width="27.7" height="6.4"/>
							</g>
							<g>
								<rect x="134.2" y="300.9" class="st17" width="27.7" height="4.2"/>
							</g>
							<g>
								<rect x="134.2" y="315.2" class="st17" width="27.7" height="4.6"/>
							</g>
							<g>
								<rect x="134.2" y="322.6" class="st17" width="27.7" height="5.2"/>
							</g>
							<g>
								<rect x="134.2" y="298.1" class="st18" width="27.7" height="0.9"/>
							</g>
							<g>
								<rect x="134.2" y="292.1" class="st18" width="27.7" height="0.9"/>
							</g>
							<g>
								<rect x="134.2" y="300" class="st18" width="27.7" height="0.9"/>
							</g>
							<g>
								<rect x="134.2" y="305.1" class="st18" width="27.7" height="0.9"/>
							</g>
							<g>
								<rect x="134.2" y="314.3" class="st18" width="27.7" height="0.9"/>
							</g>
							<g>
								<rect x="134.2" y="312.4" class="st18" width="27.7" height="0.9"/>
							</g>
							<g>
								<rect x="134.2" y="319.8" class="st18" width="27.7" height="0.9"/>
							</g>
							<g>
								<rect x="134.2" y="321.8" class="st18" width="27.7" height="0.9"/>
							</g>
							<g>
								<rect x="134.2" y="327.8" class="st18" width="27.7" height="0.9"/>
							</g>
							<g>
								<rect x="134.2" y="307" class="st18" width="27.7" height="0.9"/>
							</g>
							<g>
								<path class="st17" d="M163,307h-29.5c-0.3,0-0.5-0.2-0.5-0.5l0,0c0-0.3,0.2-0.5,0.5-0.5H163c0.3,0,0.5,0.2,0.5,0.5l0,0
									C163.5,306.8,163.3,307,163,307z"/>
							</g>
							<g>
								<path class="st17" d="M163,321.8h-29.5c-0.3,0-0.5-0.2-0.5-0.5l0,0c0-0.3,0.2-0.5,0.5-0.5H163c0.3,0,0.5,0.2,0.5,0.5l0,0
									C163.5,321.5,163.3,321.8,163,321.8z"/>
							</g>
							<g>
								<path class="st17" d="M163,314.3h-29.5c-0.3,0-0.5-0.2-0.5-0.5l0,0c0-0.3,0.2-0.5,0.5-0.5H163c0.3,0,0.5,0.2,0.5,0.5l0,0
									C163.5,314.1,163.3,314.3,163,314.3z"/>
							</g>
							<g>
								<path class="st17" d="M162.4,331.6h-28.2c-0.7,0-1.2-0.7-1.2-1.4v-0.3c0-0.7,0.5-1.2,1.2-1.2h28.2c0.7,0,1.2,0.5,1.2,1.2
									v0.3C163.5,330.9,163,331.6,162.4,331.6z"/>
							</g>
						</g>
						<g>
							<g>
								<rect x="163.9" y="289.3" class="st17" width="24.8" height="42.3"/>
							</g>
							<g>
								<g>
									<rect x="166.5" y="298.9" class="st19" width="20.7" height="8"/>
								</g>
								<g>
									<rect x="166.5" y="308" class="st19" width="20.7" height="8"/>
								</g>
								<g>
									<rect x="166.5" y="317.5" class="st19" width="20.7" height="8"/>
								</g>
								<g>
									<rect x="166.5" y="326.3" class="st19" width="20.7" height="5.2"/>
								</g>
							</g>
							<g>
								<path class="st20" d="M165.3,329.5L165.3,329.5c-0.2,0-0.3-0.2-0.3-0.3V306c0-0.2,0.2-0.3,0.3-0.3l0,0
									c0.2,0,0.3,0.2,0.3,0.3v23.1C165.7,329.3,165.5,329.5,165.3,329.5z"/>
							</g>
							<g>
								<path class="st21" d="M175,312.7c0,1.9-1.5,3.4-3.4,3.4s-3.4-1.5-3.4-3.4s1.5-3.4,3.4-3.4v3.4H175z"/>
							</g>
							<g>
								<circle class="st21" cx="171.2" cy="303.8" r="3.1"/>
							</g>
							<g>
								<circle class="st21" cx="171.2" cy="321.7" r="3.8"/>
							</g>
						</g>
					</g>
					<g id="Bingkai_Jendela">
						<g>
							<rect x="93.4" y="272.4" class="st24" width="98.7" height="1.8"/>
						</g>
						<g>
							<rect x="93.4" y="292.3" class="st24" width="98.7" height="1.8"/>
						</g>
						<g>
							<rect x="151" y="272.4" class="st24" width="1.8" height="59.2"/>
						</g>
						<g>
							<rect x="131.3" y="272.4" class="st24" width="1.8" height="59.2"/>
						</g>
						<g>
							<rect x="111.8" y="272.4" class="st24" width="1.3" height="41.1"/>
						</g>
						<g>
							<rect x="171" y="272.4" class="st24" width="1.8" height="59.2"/>
						</g>
						<g>
							<rect x="190.3" y="272.4" class="st24" width="1.8" height="59.2"/>
						</g>
						<g>
							<rect x="111.8" y="311.7" class="st24" width="80.4" height="1.8"/>
						</g>
						<g>
							<rect x="93.4" y="311.7" class="st23" width="18.3" height="1.8"/>
						</g>
					</g>
					<g>
						<g>
							<rect x="131.6" y="253.4" class="st25" width="1.1" height="19"/>
						</g>
						<g>
							<rect x="93.4" y="271.3" class="st25" width="98.7" height="1.1"/>
						</g>
					</g>
				</g>
				<g id="Atap_1_">
					<g>
						<g>
							<rect x="79.6" y="219.8" class="st27" width="37.6" height="37.5"/>
						</g>
						<g>
							<rect x="79.6" y="237.2" class="st28" width="37.6" height="2.2"/>
						</g>
					</g>
					<g>
						<g>
							<rect x="117.3" y="223.4" class="st29" width="55.4" height="30.2"/>
						</g>
						<g>
							<rect x="117.3" y="223.4" class="st30" width="7.5" height="30.2"/>
						</g>
						<g>
							<rect x="165.2" y="223.4" class="st30" width="7.5" height="30.2"/>
						</g>
						<g>
							<rect x="144.5" y="223.4" class="st31" width="1" height="30.2"/>
						</g>
						<g>
							<rect x="124.8" y="238" class="st31" width="40.4" height="1"/>
						</g>
						<g>
							<rect x="124.8" y="252.6" class="st31" width="40.4" height="1"/>
						</g>
						<g>
							<rect x="124.8" y="223.4" class="st31" width="40.4" height="1"/>
						</g>
					</g>
				</g>
			</g>
			<g id="Gedung_Kanan_2">
				<g id="Lantai_3_">
					<g>
						<polygon class="st13" points="385.7,344.7 488.1,344.6 488.1,327.4 385.7,327.6 						"/>
					</g>
					<g>
						<g>
							<rect x="385.7" y="327.6" class="st14" width="102.4" height="1.1"/>
						</g>
						<g>
							<rect x="454.2" y="327.6" class="st14" width="1.2" height="17.1"/>
						</g>
						<g>
							<rect x="420" y="327.6" class="st14" width="1.2" height="17.1"/>
						</g>
						<g>
							<rect x="385.7" y="327.6" class="st14" width="1.2" height="17.1"/>
						</g>
					</g>
				</g>
				<g id="Dinding_9_">
					<g id="Dinding_13_">
						<rect x="386.9" y="234.5" class="st15" width="101.2" height="93"/>
					</g>
					<g id="Jendela_6_">
						<rect x="385.7" y="276.9" class="st16" width="102.4" height="50.6"/>
					</g>
					<g>
						<g>
							<g>
								<path class="st17" d="M428.3,293.6h25.4c0.3,0,0.5-0.2,0.5-0.5l0,0c0-0.3-0.2-0.5-0.5-0.5h-25.4c-0.3,0-0.5,0.2-0.5,0.5l0,0
									C427.8,293.4,428,293.6,428.3,293.6z"/>
							</g>
							<g>
								<path class="st17" d="M428.3,300.4h25.4c0.3,0,0.5-0.2,0.5-0.5l0,0c0-0.3-0.2-0.5-0.5-0.5h-25.4c-0.3,0-0.5,0.2-0.5,0.5l0,0
									C427.8,300.2,428,300.4,428.3,300.4z"/>
							</g>
							<g>
								<rect x="429.3" y="294.4" class="st17" width="23.8" height="4.4"/>
							</g>
							<g>
								<rect x="429.3" y="307.2" class="st17" width="23.8" height="5.5"/>
							</g>
							<g>
								<rect x="429.3" y="301.2" class="st17" width="23.8" height="3.6"/>
							</g>
							<g>
								<rect x="429.3" y="313.5" class="st17" width="23.8" height="4"/>
							</g>
							<g>
								<rect x="429.3" y="319.9" class="st17" width="23.8" height="4.4"/>
							</g>
							<g>
								<rect x="429.3" y="298.7" class="st18" width="23.8" height="0.8"/>
							</g>
							<g>
								<rect x="429.3" y="293.6" class="st18" width="23.8" height="0.8"/>
							</g>
							<g>
								<rect x="429.3" y="300.4" class="st18" width="23.8" height="0.8"/>
							</g>
							<g>
								<rect x="429.3" y="304.8" class="st18" width="23.8" height="0.8"/>
							</g>
							<g>
								<rect x="429.3" y="312.7" class="st18" width="23.8" height="0.8"/>
							</g>
							<g>
								<rect x="429.3" y="311.1" class="st18" width="23.8" height="0.8"/>
							</g>
							<g>
								<rect x="429.3" y="317.5" class="st18" width="23.8" height="0.8"/>
							</g>
							<g>
								<rect x="429.3" y="319.1" class="st18" width="23.8" height="0.8"/>
							</g>
							<g>
								<rect x="429.3" y="324.3" class="st18" width="23.8" height="0.8"/>
							</g>
							<g>
								<rect x="429.3" y="306.5" class="st18" width="23.8" height="0.8"/>
							</g>
							<g>
								<path class="st17" d="M428.3,306.5h25.4c0.3,0,0.5-0.2,0.5-0.5l0,0c0-0.3-0.2-0.5-0.5-0.5h-25.4c-0.3,0-0.5,0.2-0.5,0.5l0,0
									C427.8,306.2,428,306.5,428.3,306.5z"/>
							</g>
							<g>
								<path class="st17" d="M428.3,319.1h25.4c0.3,0,0.5-0.2,0.5-0.5l0,0c0-0.3-0.2-0.5-0.5-0.5h-25.4c-0.3,0-0.5,0.2-0.5,0.5l0,0
									C427.8,318.9,428,319.1,428.3,319.1z"/>
							</g>
							<g>
								<path class="st17" d="M428.3,312.7h25.4c0.3,0,0.5-0.2,0.5-0.5l0,0c0-0.3-0.2-0.5-0.5-0.5h-25.4c-0.3,0-0.5,0.2-0.5,0.5l0,0
									C427.8,312.5,428,312.7,428.3,312.7z"/>
							</g>
							<g>
								<path class="st17" d="M429,327.6h24.1c0.6,0,1-0.5,1-1v-0.4c0-0.6-0.5-1-1-1h-24.3c-0.6,0-1,0.5-1,1v0.3
									C427.8,327.1,428.3,327.6,429,327.6z"/>
							</g>
						</g>
						<g>
							<g>
								<rect x="406.2" y="291.2" class="st17" width="21.3" height="36.4"/>
							</g>
							<g>
								<g>
									<rect x="407.4" y="299.5" class="st19" width="17.8" height="6.9"/>
								</g>
								<g>
									<rect x="407.4" y="307.3" class="st19" width="17.8" height="6.9"/>
								</g>
								<g>
									<rect x="407.4" y="315.4" class="st19" width="17.8" height="6.9"/>
								</g>
								<g>
									<rect x="407.4" y="323.1" class="st19" width="17.8" height="4.5"/>
								</g>
							</g>
							<g>
								<path class="st20" d="M426.3,325.8L426.3,325.8c0.2,0,0.3-0.1,0.3-0.3v-19.9c0-0.2-0.1-0.3-0.3-0.3l0,0
									c-0.2,0-0.3,0.1-0.3,0.3v19.9C426,325.7,426.1,325.8,426.3,325.8z"/>
							</g>
							<g>
								<path class="st21" d="M417.9,311.3c0,1.6,1.3,2.9,2.9,2.9s2.9-1.3,2.9-2.9s-1.3-2.9-2.9-2.9v2.9H417.9z"/>
							</g>
							<g>
								<circle class="st21" cx="421.3" cy="303.7" r="2.7"/>
							</g>
							<g>
								<circle class="st21" cx="421.3" cy="319.1" r="3.2"/>
							</g>
						</g>
					</g>
					<g>
						<g>
							<rect x="472.4" y="295.4" class="st22" width="15.8" height="15.3"/>
						</g>
						<g>
							<rect x="387.3" y="312" class="st22" width="32.5" height="15.6"/>
						</g>
						<g>
							<rect x="455.6" y="312.1" class="st22" width="32.5" height="15.5"/>
						</g>
						<g>
							<rect x="421.4" y="312.1" class="st22" width="32.6" height="15.5"/>
						</g>
						<g>
							<rect x="472.4" y="310.5" class="st23" width="15.8" height="1.6"/>
						</g>
						<g>
							<rect x="454" y="312.1" class="st23" width="1.6" height="15.5"/>
						</g>
						<g>
							<rect x="419.8" y="312.1" class="st23" width="1.6" height="15.5"/>
						</g>
					</g>
					<g id="Bingkai_Jendela_3_">
						<g>
							<rect x="385.7" y="276.7" class="st24" width="102.4" height="1.6"/>
						</g>
						<g>
							<rect x="385.7" y="293.8" class="st24" width="102.4" height="1.6"/>
						</g>
						<g>
							<rect x="437" y="276.7" class="st24" width="1.6" height="35.4"/>
						</g>
						<g>
							<rect x="454" y="276.7" class="st24" width="1.6" height="35.4"/>
						</g>
						<g>
							<rect x="471.3" y="276.7" class="st24" width="1.1" height="35.4"/>
						</g>
						<g>
							<rect x="419.8" y="276.7" class="st24" width="1.6" height="35.4"/>
						</g>
						<g>
							<rect x="403.2" y="276.7" class="st24" width="1.6" height="35.4"/>
						</g>
						<g>
							<rect x="385.7" y="276.7" class="st24" width="1.6" height="50.9"/>
						</g>
						<g>
							<rect x="385.7" y="310.5" class="st24" width="86.7" height="1.6"/>
						</g>
					</g>
					<g>
						<g>
							<rect x="385.7" y="260.4" class="st25" width="1.4" height="16.3"/>
						</g>
						<g>
							<rect x="419.9" y="260.4" class="st26" width="1.4" height="16.3"/>
						</g>
						<g>
							<rect x="454.1" y="260.4" class="st26" width="1.4" height="16.3"/>
						</g>
						<g>
							<rect x="385.7" y="275.7" class="st25" width="102.4" height="1"/>
						</g>
					</g>
				</g>
				<g id="Atap_4_">
					<g>
						<g>
							<rect x="467.6" y="231.4" class="st27" width="32.4" height="32.3"/>
						</g>
						<g>
							<rect x="467.6" y="246.4" class="st28" width="32.4" height="1.9"/>
						</g>
					</g>
					<g>
						<g>
							<rect x="385.6" y="234.5" class="st29" width="82" height="26"/>
						</g>
						<g>
							<rect x="461.2" y="234.5" class="st30" width="6.5" height="26"/>
						</g>
						<g>
							<rect x="441.9" y="234.5" class="st31" width="0.9" height="26"/>
						</g>
						<g>
							<rect x="413.9" y="234.5" class="st31" width="0.9" height="26"/>
						</g>
						<g>
							<rect x="385.6" y="234.5" class="st31" width="0.9" height="26"/>
						</g>
						<g>
							<rect x="385.6" y="247.1" class="st31" width="75.5" height="0.9"/>
						</g>
						<g>
							<rect x="385.6" y="259.7" class="st31" width="75.5" height="0.9"/>
						</g>
						<g>
							<rect x="385.6" y="234.5" class="st31" width="75.5" height="0.9"/>
						</g>
					</g>
				</g>
			</g>
			<g id="Gedung_Kanan_1">
				<g id="Lantai_1_">
					<g>
						<rect x="308.9" y="331.6" class="st13" width="98.7" height="19.9"/>
					</g>
					<g>
						<g>
							<rect x="308.9" y="331.6" class="st14" width="98.7" height="1.3"/>
						</g>
						<g>
							<rect x="368.1" y="331.6" class="st14" width="1.4" height="19.9"/>
						</g>
						<g>
							<rect x="328.4" y="331.6" class="st14" width="1.4" height="19.9"/>
						</g>
					</g>
				</g>
				<g id="Dinding_6_">
					<g id="Dinding_7_">
						<rect x="308.9" y="223.4" class="st15" width="98.6" height="108.1"/>
					</g>
					<g id="Jendela_1_">
						<rect x="308.9" y="272.4" class="st16" width="98.7" height="59.2"/>
					</g>
					<g>
						<g>
							<rect x="389.2" y="294.2" class="st22" width="18.3" height="17.5"/>
						</g>
						<g>
							<rect x="369.8" y="313.6" class="st22" width="37.8" height="18"/>
						</g>
					</g>
					<g>
						<g>
							<g>
								<path class="st17" d="M313.4,292.1h29.5c0.3,0,0.5-0.2,0.5-0.5l0,0c0-0.3-0.2-0.5-0.5-0.5h-29.5c-0.3,0-0.5,0.2-0.5,0.5l0,0
									C312.8,291.8,313.1,292.1,313.4,292.1z"/>
							</g>
							<g>
								<path class="st17" d="M313.4,300h29.5c0.3,0,0.5-0.2,0.5-0.5l0,0c0-0.3-0.2-0.5-0.5-0.5h-29.5c-0.3,0-0.5,0.2-0.5,0.5l0,0
									C312.8,299.8,313.1,300,313.4,300z"/>
							</g>
							<g>
								<rect x="314.6" y="293" class="st17" width="27.7" height="5.1"/>
							</g>
							<g>
								<rect x="314.6" y="307.9" class="st17" width="27.7" height="6.4"/>
							</g>
							<g>
								<rect x="314.6" y="300.9" class="st17" width="27.7" height="4.2"/>
							</g>
							<g>
								<rect x="314.6" y="315.2" class="st17" width="27.7" height="4.6"/>
							</g>
							<g>
								<rect x="314.6" y="322.6" class="st17" width="27.7" height="5.2"/>
							</g>
							<g>
								<rect x="314.6" y="298.1" class="st18" width="27.7" height="0.9"/>
							</g>
							<g>
								<rect x="314.6" y="292.1" class="st18" width="27.7" height="0.9"/>
							</g>
							<g>
								<rect x="314.6" y="300" class="st18" width="27.7" height="0.9"/>
							</g>
							<g>
								<rect x="314.6" y="305.1" class="st18" width="27.7" height="0.9"/>
							</g>
							<g>
								<rect x="314.6" y="314.3" class="st18" width="27.7" height="0.9"/>
							</g>
							<g>
								<rect x="314.6" y="312.4" class="st18" width="27.7" height="0.9"/>
							</g>
							<g>
								<rect x="314.6" y="319.8" class="st18" width="27.7" height="0.9"/>
							</g>
							<g>
								<rect x="314.6" y="321.8" class="st18" width="27.7" height="0.9"/>
							</g>
							<g>
								<rect x="314.6" y="327.8" class="st18" width="27.7" height="0.9"/>
							</g>
							<g>
								<rect x="314.6" y="307" class="st18" width="27.7" height="0.9"/>
							</g>
							<g>
								<path class="st17" d="M313.4,307h29.5c0.3,0,0.5-0.2,0.5-0.5l0,0c0-0.3-0.2-0.5-0.5-0.5h-29.5c-0.3,0-0.5,0.2-0.5,0.5l0,0
									C312.8,306.8,313.1,307,313.4,307z"/>
							</g>
							<g>
								<path class="st17" d="M313.4,321.8h29.5c0.3,0,0.5-0.2,0.5-0.5l0,0c0-0.3-0.2-0.5-0.5-0.5h-29.5c-0.3,0-0.5,0.2-0.5,0.5l0,0
									C312.8,321.5,313.1,321.8,313.4,321.8z"/>
							</g>
							<g>
								<path class="st17" d="M313.4,314.3h29.5c0.3,0,0.5-0.2,0.5-0.5l0,0c0-0.3-0.2-0.5-0.5-0.5h-29.5c-0.3,0-0.5,0.2-0.5,0.5l0,0
									C312.8,314.1,313.1,314.3,313.4,314.3z"/>
							</g>
							<g>
								<path class="st17" d="M314.2,331.6h28.1c0.7,0,1.2-0.5,1.2-1.2v-0.5c0-0.7-0.5-1.2-1.2-1.2H314c-0.7,0-1.2,0.5-1.2,1.2v0.3
									C312.8,331,313.4,331.6,314.2,331.6z"/>
							</g>
						</g>
					</g>
					<g id="Bingkai_Jendela_1_">
						<g>
							<rect x="308.9" y="272.4" class="st24" width="98.7" height="1.8"/>
						</g>
						<g>
							<rect x="308.9" y="292.3" class="st24" width="98.7" height="1.8"/>
						</g>
						<g>
							<rect x="348.2" y="272.4" class="st24" width="1.8" height="59.2"/>
						</g>
						<g>
							<rect x="367.9" y="272.4" class="st24" width="1.8" height="59.2"/>
						</g>
						<g>
							<rect x="388" y="272.4" class="st24" width="1.3" height="41.1"/>
						</g>
						<g>
							<rect x="328.1" y="272.4" class="st24" width="1.8" height="59.2"/>
						</g>
						<g>
							<rect x="308.9" y="272.4" class="st24" width="1.8" height="59.2"/>
						</g>
						<g>
							<rect x="308.9" y="311.7" class="st24" width="80.4" height="1.8"/>
						</g>
						<g>
							<rect x="389.2" y="311.7" class="st23" width="18.3" height="1.8"/>
						</g>
					</g>
					<g>
						<g>
							<rect x="368.3" y="253.4" class="st25" width="1.1" height="19"/>
						</g>
						<g>
							<rect x="308.9" y="271.3" class="st25" width="98.7" height="1.1"/>
						</g>
					</g>
				</g>
				<g id="Atap_2_">
					<g>
						<g>
							<rect x="383.7" y="219.8" class="st27" width="37.6" height="37.5"/>
						</g>
						<g>
							<rect x="383.7" y="237.2" class="st28" width="37.6" height="2.2"/>
						</g>
					</g>
					<g>
						<g>
							<rect x="328.4" y="223.4" class="st29" width="55.4" height="30.2"/>
						</g>
						<g>
							<rect x="376.2" y="223.4" class="st30" width="7.5" height="30.2"/>
						</g>
						<g>
							<rect x="328.3" y="223.4" class="st30" width="7.5" height="30.2"/>
						</g>
						<g>
							<rect x="355.5" y="223.4" class="st31" width="1" height="30.2"/>
						</g>
						<g>
							<rect x="335.8" y="238" class="st31" width="40.4" height="1"/>
						</g>
						<g>
							<rect x="335.8" y="252.6" class="st31" width="40.4" height="1"/>
						</g>
						<g>
							<rect x="335.8" y="223.4" class="st31" width="40.4" height="1"/>
						</g>
					</g>
				</g>
			</g>
			<g id="Gedung_Tengah">
				<g id="Dinding_1_">
					<g id="Dinding">
						<rect x="191.6" y="253.6" class="st32" width="116.8" height="97.9"/>
					</g>
					<g>
						<g>
							<rect x="229.7" y="258.5" class="st33" width="1.3" height="93"/>
						</g>
						<g>
							<rect x="269.3" y="258.5" class="st33" width="1.3" height="93"/>
						</g>
						<g>
							<rect x="191.6" y="293.4" class="st33" width="116.8" height="1.3"/>
						</g>
						<g>
							<rect x="191.6" y="275.1" class="st33" width="116.8" height="1.3"/>
						</g>
						<g>
							<rect x="191.6" y="312.5" class="st33" width="116.8" height="1.3"/>
						</g>
						<g>
							<rect x="191.6" y="332.5" class="st33" width="116.8" height="1.3"/>
						</g>
					</g>
					<g>
						<polygon class="st34" points="282.5,339.3 282.5,285.6 218.2,285.6 218.2,339.3 215,339.3 215,346.1 285.6,346.1 285.6,339.3 
													"/>
					</g>
					<g>
						<rect x="211.6" y="346.1" class="st35" width="77.2" height="6.5"/>
					</g>
					<g>
						<g>
							<rect x="221.3" y="288.5" class="st36" width="58.7" height="51.5"/>
						</g>
						<g>
							<g>
								<path class="st37" d="M274.6,292.6h-8.7h-2.5h-25.5h-2.5h-8.7h-2.5l0,0v2.5l0,0v7.7v2.5v32.2v2.5h2.5h8.7h2.5h25.5h2.5h8.7
									h2.5v-2.5v-32.2v-2.5v-7.7v-2.5H274.6z M235.4,337.3h-8.7v-32.2h8.7V337.3z M226.7,302.6V295h8.7v7.7h-8.7V302.6z
									 M263.4,337.3h-25.5v-32.2h25.5V337.3z M237.9,302.6V295h25.5v7.7h-25.5V302.6z M274.6,337.3h-8.7v-32.2h8.7V337.3z
									 M274.6,302.6h-8.7V295h8.7V302.6z"/>
							</g>
						</g>
						<g>
							<rect x="254.6" y="309.7" class="st38" width="1.5" height="19.8"/>
						</g>
						<g>
							<rect x="244.4" y="309.7" class="st38" width="1.5" height="19.8"/>
						</g>
					</g>
					<g>
						<g>
							<rect x="232.1" y="285.6" class="st39" width="3" height="55"/>
						</g>
						<g>
							<rect x="265.5" y="285.6" class="st39" width="3" height="55"/>
						</g>
						<g>
							<rect x="248.8" y="298.1" class="st39" width="3" height="42.5"/>
						</g>
						<g>
							<rect x="218.2" y="298.1" class="st39" width="64.3" height="3"/>
						</g>
					</g>
					<g>
						<rect x="191.6" y="253.4" class="st40" width="116.8" height="5"/>
					</g>
				</g>
				<g id="Atap">
					<g>
						<rect x="171.8" y="196.9" class="st27" width="156.4" height="56.7"/>
					</g>
					<g>
						<g>
							<rect x="209.8" y="196.9" class="st41" width="1.3" height="56.7"/>
						</g>
						<g>
							<rect x="249.7" y="196.9" class="st41" width="1.3" height="56.7"/>
						</g>
						<g>
							<rect x="288.9" y="196.9" class="st41" width="1.3" height="56.7"/>
						</g>
						<g>
							<rect x="171.8" y="215.3" class="st41" width="156.4" height="1.3"/>
						</g>
						<g>
							<rect x="171.8" y="233.9" class="st41" width="156.4" height="1.3"/>
						</g>
					</g>
				</g>
			</g>
		</g>
	</g>
</g>
<g>
	<path class="st42" d="M261.7,237.4h-1.3h-5.8l0,2.2l-1-1.3l-0.1-0.3l0.3-0.2l0,0c0.4-0.2,1.3-0.9,2.3-2l0.1-0.1c0,0,0,0,0,0
		c6.2-2.4,10.6-8.4,10.6-15.4c0-3.3-1-6.4-2.7-9c-0.6-1-1.4-1.9-2.3-2.8c-1.5-1.5-3.3-2.7-5.2-3.5c-0.9-0.4-1.9-0.7-2.9-0.9l0-0.1
		l0,0c-1.1-0.2-2.3-0.4-3.4-0.4c-1.3,0-2.6,0.2-3.9,0.5c-2.1,0.5-4,1.3-5.8,2.5l-0.2,0.1c-1,0.7-1.8,1.4-2.6,2.3
		c-1.7,1.8-3,4-3.7,6.4l-0.1,0l0.1,0c-0.5,1.5-0.7,3.1-0.7,4.8c0,0.1,0,0.1,0,0.2l0,0l0,0c0,2,0.4,3.9,1.1,5.6l0,0l0,0
		c0.4,1,0.9,2,1.4,2.9c-0.3,0.2-0.7,0.4-1,0.7c0,0-1.4,0.6-1.4,1c0,0.4,1.1,1.2,1.1,1.2l0.1,0.1c0.2,0.2,3.9,3.8,11,5.5h-5l0,3.4h-1
		l0-3.4h-7.1l0,11.2h7.1v-3.4h1l0,3.4h3.6l0,0c0.6,0,1.2-0.2,1.6-0.4c0.2-0.1,0.4-0.2,0.5-0.3l0,0.8h7.1l0-2.2l1.8,2.2h2.9l0,0
		c0.6,0,1.2-0.2,1.6-0.4l0,0c0.2-0.1,0.4-0.2,0.5-0.3l0,0.8h7.1l0-11.2H261.7z"/>
	<g>
		<g>
			<path class="st43" d="M246.3,238.8l0,6.1c0,0.9-0.4,1.6-1.1,2c-0.3,0.2-0.6,0.2-1.1,0.3H242l0-3.4h-3.8v3.4h-4.3l0-8.4h4.3l0,3.4
				h3.8l0-3.4H246.3z"/>
			<path class="st43" d="M260.3,238.8l0,6.1c0,0.9-0.4,1.6-1.1,2c-0.3,0.2-0.7,0.2-1.1,0.3H256l-3.8-4.8l0,4.8h-4.3l0-8.4h4.3
				l3.8,4.8l0-4.8H260.3z"/>
			<path class="st43" d="M261.8,238.8h4.3l0,8.4h-4.3L261.8,238.8z"/>
		</g>
		<g>
			<path class="st44" d="M250,235.4c-8.5,0-15.3-6.8-15.3-15.1c0-3.8,1.4-7.5,4.1-10.3c2.9-3.1,7-4.9,11.3-4.9
				c8.4,0,15.3,6.8,15.3,15.1C265.3,228.6,258.5,235.4,250,235.4z M250,205.7c-4.1,0-8,1.7-10.8,4.7c-2.5,2.7-3.9,6.2-3.9,9.8
				c0,8,6.6,14.5,14.7,14.5c8.1,0,14.7-6.5,14.7-14.5C264.7,212.3,258.1,205.7,250,205.7z"/>
			<g>
				<g>
					<path class="st45" d="M242.7,213.3c1.8-1.9,4.4-3.2,7.3-3.2c5.5,0,9.9,4.4,9.9,9.8c0,5.4-4.4,9.8-9.9,9.8
						c-5.5,0-9.9-4.4-9.9-9.8C240.1,217.3,241.1,215,242.7,213.3"/>
				</g>
			</g>
			<path class="st42" d="M256,225.2c1-1.6,1.5-3.4,1.5-5.3c0-2-0.6-3.8-1.7-5.4c0.5-0.4,1-0.8,1.5-1.2c0-0.1,0-0.1,0-0.2
				c-0.1-0.1-0.1-0.1-0.2,0c-0.4,0.5-0.9,0.9-1.4,1.2c-0.8-1.1-1.8-2.1-3.1-2.9c0.2-0.3,0.4-0.6,0.6-0.9l-0.3-0.1
				c-0.5,1.2-1.7,1.9-2.9,1.9c-0.4,0-0.8-0.1-1.1-0.2c0,0,0,0,0,0c0,0-0.1,0-0.1,0c-0.7-0.3-1.3-0.8-1.6-1.5l-0.3,0.1
				c0.1,0.3,0.3,0.5,0.5,0.7c-1.2,0.7-2.3,1.7-3.1,2.9c-0.5-0.4-1-0.8-1.4-1.2c-0.1-0.1-0.1-0.1-0.2,0c-0.1,0.1-0.1,0.1,0,0.2
				c0.5,0.5,0.9,0.9,1.5,1.3c-1,1.6-1.6,3.4-1.6,5.4c0,1.9,0.6,3.7,1.5,5.3c-0.5,0.4-0.9,0.7-1.4,1.2c-0.1,0.1,0,0.1,0,0.2
				c0,0,0.1,0,0.1,0c0,0,0.1,0,0.1,0c0.4-0.4,0.9-0.8,1.3-1.1c1.2,1.8,3.1,3.3,5.3,4c-0.3,0.1-0.7,0.1-1,0.2c-0.1,0-0.1,0.1-0.1,0.1
				c0,0.1,0.1,0.1,0.1,0.1h0c0.5,0,0.9-0.1,1.4-0.2c0,0,0.1,0.1,0.1,0.1c0,0,0.1,0,0.1,0c0,0,0,0,0.1,0v0c0,0.1,0.1,0.1,0.1,0.1
				c0.1,0,0.1-0.1,0.1-0.1v-0.1c0,0,0.1,0,0.1,0c0,0,0,0,0,0c0,0,0.1,0,0.1,0c0,0,0.1,0,0.1,0c0.2,0,0.4,0.1,0.6,0.1c0,0,0,0,0,0
				c0.1,0,0.1-0.1,0.1-0.1c0-0.1,0-0.1-0.1-0.2c-0.1,0-0.3-0.1-0.4-0.1c0.1-0.1,0.2-0.2,0.3-0.3c1.4-0.6,2.7-1.4,3.7-2.6
				c0.3-0.4,0.6-0.8,0.9-1.2c0.5,0.3,0.9,0.7,1.3,1.1c0.1,0.1,0.1,0.1,0.2,0c0.1-0.1,0.1-0.1,0-0.2
				C256.9,225.9,256.5,225.5,256,225.2z M257.3,219.9c0,1.9-0.5,3.6-1.5,5.1c-0.5-0.3-1-0.6-1.6-0.9c0.4-1.2,0.6-2.6,0.6-3.9
				c0-1.6-0.3-3.2-0.8-4.7c0.6-0.3,1.2-0.6,1.7-0.9C256.7,216.2,257.3,218,257.3,219.9z M251,228.9c-0.2,0.1-0.4,0.2-0.6,0.2v-5.6
				c1.2,0,2.4,0.3,3.5,0.7C253.3,226.1,252.3,227.6,251,228.9z M250,223.5C250.1,223.5,250.1,223.5,250,223.5l0.1,5.7c0,0,0,0-0.1,0
				c-0.1,0-0.1,0-0.2,0c-1.4-1.3-2.5-3.1-3.2-5.1C247.8,223.7,248.9,223.5,250,223.5z M246.7,223.8c-0.3-1.1-0.5-2.4-0.5-3.6
				c0-1.5,0.3-3,0.7-4.4c1,0.3,2,0.5,3.1,0.5c0,0,0.1,0,0.1,0v6.9c0,0,0,0-0.1,0C248.9,223.2,247.7,223.4,246.7,223.8z M250.4,223.3
				v-6.9c1.1,0,2.2-0.3,3.3-0.7c0.5,1.4,0.8,3,0.8,4.6c0,1.3-0.2,2.6-0.6,3.8C252.8,223.5,251.6,223.3,250.4,223.3z M251.7,212.3
				c0.8,0.9,1.4,2,1.8,3.1c-1,0.4-2.1,0.6-3.2,0.6v-3.5c0.5-0.1,0.9-0.2,1.3-0.4C251.7,212.2,251.7,212.2,251.7,212.3z M252.4,211.6
				c1.2,0.7,2.3,1.7,3.1,2.8c-0.5,0.4-1.1,0.7-1.7,0.9c-0.5-1.2-1.1-2.3-1.9-3.2c0,0-0.1,0-0.1,0
				C252.1,211.9,252.3,211.8,252.4,211.6z M250.1,212.6v3.5c0,0-0.1,0-0.1,0c-1,0-2.1-0.2-3-0.5c0.4-1.2,1.1-2.3,1.8-3.2
				C249.2,212.5,249.6,212.6,250.1,212.6C250.1,212.6,250.1,212.6,250.1,212.6z M247.6,211.6c0.3,0.3,0.6,0.5,1,0.7
				c-0.8,1-1.4,2.1-1.8,3.2c-0.8-0.3-1.5-0.6-2.1-1.1C245.4,213.3,246.4,212.3,247.6,211.6z M242.8,219.9c0-1.9,0.6-3.7,1.6-5.2
				c0.7,0.5,1.4,0.8,2.2,1.1c-0.5,1.4-0.8,2.9-0.8,4.5c0,1.3,0.2,2.5,0.5,3.7c-0.7,0.3-1.4,0.6-2.1,1.1
				C243.4,223.5,242.8,221.8,242.8,219.9z M244.5,225.2c0.6-0.4,1.3-0.8,2-1c0.6,1.8,1.5,3.5,2.8,4.8
				C247.3,228.3,245.6,226.9,244.5,225.2z M251.7,228.6c1.1-1.2,1.9-2.6,2.4-4.2c0.5,0.2,1,0.5,1.5,0.9
				C254.7,226.7,253.3,227.9,251.7,228.6z"/>
			<g>
				<g>
					<path class="st46" d="M250,229.8c-5.5,0-10-4.4-10-9.9c0-2.5,0.9-4.9,2.7-6.7c1.9-2,4.6-3.2,7.4-3.2c5.5,0,10,4.4,10,9.9
						C260.1,225.4,255.6,229.8,250,229.8z M250,210.2c-2.7,0-5.4,1.1-7.2,3.1c-1.7,1.8-2.6,4.1-2.6,6.6c0,5.3,4.4,9.7,9.8,9.7
						c5.4,0,9.8-4.3,9.8-9.7C259.8,214.6,255.4,210.2,250,210.2z"/>
				</g>
			</g>
		</g>
		<g>
			<path class="st42" d="M236.6,231c0,0,3.4-3.4,10.2-1.4c0,0-6.1-3.6-6.2-8.1c0,0,5.9-1.8,10.8,6.3c0,0,1.8-3.5,4.4-5.2
				c0,0,2.1,3.8,0.9,8.1c-1.2,4.4-3.8,5.7-3.8,5.7s-0.3,0.9-4.4-0.3C244.5,235,237.9,232.3,236.6,231z"/>
			<g>
				<path class="st43" d="M244.4,227.8l0.5,0.2l-0.4-0.3c0,0-2.7-2.2-3.2-6.1c0.6,0,5.6,0.1,9.3,4.8l0.4,0.4l-0.2-0.5
					c0-0.1-2.6-5.8-10.2-5.8c-0.2,0-0.5,0-0.7,0l-0.1,0l0,0.1C239.8,220.7,240.8,226.4,244.4,227.8z"/>
				<path class="st43" d="M241.1,231L241.1,231L241.1,231L241.1,231L241.1,231L241.1,231l0,0.2v0v0L241.1,231l0,0.2
					c0.2,0,4.7,0.1,8.7,4.4c-1.1,0-6.9-0.4-12.4-4.6c0.4-0.3,2.4-1.6,5.9-1.6c2.1,0,4.3,0.4,6.6,1.3l0.1,0l0-0.1c0,0-0.3-4-5.9-7.5
					l-0.1,0.1c0,0,3.7,2.7,4.5,6.6c-0.6-0.3-3-1.3-5.9-1.3c-2.6,0-4.9,0.8-7,2.3l-0.1,0.1l0.1,0.1c0.1,0.1,5.5,5.4,15.8,5.8l0.1,0
					l0-0.1C251.5,236.6,249.8,231.2,241.1,231z"/>
				<path class="st43" d="M256.2,221.7L256.2,221.7l-0.1,0c0,0-1.9,1.3-3.5,3.5c-1.5,2-2.9,5.2-1.6,8.8l0.1,0
					c0-0.1-1.1-6.4,4.6-10.9c0.4,0.7,3.2,6.4-2.3,12.1c-0.1-0.7-0.4-4.2,1.4-9.9l-0.1-0.1c0,0.1-3.2,5.8-1.8,11.3l0,0.1l0.1,0
					c0,0,1.9-1.1,3.2-3.4C257.5,231,258.4,227.2,256.2,221.7z"/>
			</g>
		</g>
		<path class="st42" d="M250.2,220.3c-3.4,0-6.7-0.6-9.9-1.7c-0.1,0-0.1-0.1-0.1-0.2c0-0.1,0.1-0.1,0.2-0.1c6.4,2.3,13.3,2.3,19.7,0
			c0.1,0,0.1,0,0.2,0.1c0,0.1,0,0.1-0.1,0.2C256.9,219.7,253.6,220.3,250.2,220.3z"/>
		<g>
			<polygon class="st43" points="239.7,226.9 239.3,226.3 240,225.9 239.7,225.4 238,226.5 238.3,227 238.9,226.6 239.3,227.2 
				238.6,227.6 238.9,228.1 240.7,227 240.4,226.5 			"/>
			<path class="st43" d="M239.4,224.8l-0.4,0l-0.3-0.7l0.3-0.3l-0.2-0.6l-1.6,1.5l0.2,0.5l2.2,0.1L239.4,224.8z M237.9,224.8
				l0.5-0.4l0.2,0.4L237.9,224.8z"/>
			<path class="st43" d="M238.5,221.5L238.5,221.5l0-0.6l-0.4-0.1l0-0.8l0.4-0.2l0-0.6l-2.1,0.9l0,0.5L238.5,221.5l-0.5,0.1l0.2,1
				l-1.5,0.3l0.1,0.6l2-0.4L238.5,221.5z M237.1,220.4l0.6-0.2l0,0.5L237.1,220.4z"/>
			<polygon class="st43" points="238.8,217.6 238.3,217.5 238.1,218.5 236.6,218.3 236.5,218.8 238.5,219.1 			"/>
			<polygon class="st43" points="239.2,216.2 238.2,215.8 239.6,215.4 239.8,214.9 237.9,214.1 237.7,214.6 238.7,215.1 
				237.4,215.4 237.1,215.9 239,216.7 			"/>
			<polygon class="st43" points="239.8,214 239.6,213.8 240.1,213 239.7,212.7 239.2,213.5 238.9,213.4 239.5,212.5 239.1,212.2 
				238.2,213.6 239.9,214.7 240.8,213.3 240.4,213 			"/>
			<polygon class="st43" points="241,210.8 240.6,210.5 239.4,211.8 239.8,212.2 240.2,211.7 241.3,212.8 241.7,212.4 240.6,211.3 
							"/>
			<polygon class="st43" points="243,208.7 243.4,209.8 242.4,209.1 242,209.4 242.4,210.6 241.4,209.8 240.9,210.2 242.6,211.5 
				243.1,211.2 242.7,210 243.7,210.7 244.1,210.4 243.5,208.3 			"/>
			<path class="st43" d="M246.4,208.3c-0.1-0.1-0.1-0.3-0.2-0.4c-0.1-0.1-0.2-0.2-0.3-0.2c-0.1-0.1-0.3-0.1-0.4-0.1
				c-0.1,0-0.3,0-0.4,0.1c-0.1,0.1-0.3,0.1-0.4,0.2c-0.1,0.1-0.2,0.2-0.2,0.3c-0.1,0.1-0.1,0.3-0.1,0.4c0,0.1,0,0.3,0.1,0.4l0,0
				c0.1,0.1,0.1,0.3,0.2,0.4c0.1,0.1,0.2,0.2,0.3,0.2c0.1,0.1,0.3,0.1,0.4,0.1c0.1,0,0.3,0,0.4-0.1c0.1-0.1,0.3-0.1,0.4-0.2
				c0.1-0.1,0.2-0.2,0.2-0.3c0.1-0.1,0.1-0.3,0.1-0.4C246.5,208.6,246.5,208.4,246.4,208.3L246.4,208.3z M245.9,208.9
				c0,0.1-0.1,0.1-0.1,0.2c0,0.1-0.1,0.1-0.2,0.1c-0.1,0-0.1,0-0.2,0c-0.1,0-0.1,0-0.2-0.1c-0.1,0-0.1-0.1-0.2-0.1
				c0-0.1-0.1-0.1-0.1-0.2l0,0c0-0.1,0-0.1,0-0.2c0-0.1,0-0.1,0-0.2c0-0.1,0.1-0.1,0.1-0.2c0,0,0.1-0.1,0.2-0.1c0.1,0,0.1,0,0.2,0
				c0.1,0,0.1,0,0.2,0.1c0.1,0,0.1,0.1,0.2,0.1c0,0.1,0.1,0.1,0.1,0.2l0,0c0,0.1,0,0.1,0,0.2C245.9,208.8,245.9,208.9,245.9,208.9z"
				/>
			<path class="st43" d="M248.5,208c0.1-0.1,0.1-0.3,0-0.4l0,0c0-0.2-0.1-0.3-0.3-0.4c-0.1-0.1-0.2-0.1-0.3-0.1c-0.1,0-0.2,0-0.4,0
				l-1,0.2l0.4,2l0.6-0.1l-0.1-0.6l0.2,0l0,0l0.5,0.5l0.6-0.1l-0.6-0.6C248.4,208.2,248.5,208.1,248.5,208z M248,207.9
				c0,0.1-0.1,0.1-0.2,0.1l-0.4,0.1l-0.1-0.5l0.4-0.1c0.1,0,0.2,0,0.2,0c0.1,0,0.1,0.1,0.1,0.2l0,0C248,207.8,248,207.8,248,207.9z"
				/>
			<polygon class="st43" points="250.9,206.8 250.3,206.8 249.6,207.7 249.6,206.8 249,206.8 249,208.9 249.6,208.9 249.6,208.4 
				249.8,208.1 250.3,208.9 251,208.9 250.2,207.7 			"/>
			
				<rect x="251.3" y="207.8" transform="matrix(0.1964 -0.9805 0.9805 0.1964 -1.2853 414.6458)" class="st43" width="2" height="0.6"/>
			<polygon class="st43" points="254.3,208.7 253.9,207.4 253.4,207.3 252.7,209.2 253.2,209.4 253.6,208.3 254.1,209.7 
				254.5,209.8 255.2,207.9 254.7,207.7 			"/>
			<polygon class="st43" points="257,209.4 257.3,209 255.7,208.1 255.4,208.6 256,208.9 255.2,210.2 255.7,210.5 256.5,209.1 			
				"/>
			<polygon class="st43" points="257.1,210.9 257.3,210.6 258.1,211.2 258.4,210.9 257.6,210.3 257.8,210 258.6,210.7 258.9,210.3 
				257.7,209.3 256.4,210.9 257.7,211.9 258,211.6 			"/>
			<path class="st43" d="M258.8,212.3L258.8,212.3l-0.2,0.7l0.4,0.5l0.2-0.8c0.1,0.1,0.3,0.1,0.4,0.1c0.1,0,0.3-0.1,0.4-0.2l0,0
				c0.2-0.1,0.2-0.3,0.2-0.5c0-0.1,0-0.2-0.1-0.3c0-0.1-0.1-0.2-0.2-0.3l-0.6-0.7l-1.5,1.4l0.4,0.4l0.5-0.4L258.8,212.3z
				 M259.4,211.5l0.2,0.3c0.1,0.1,0.1,0.1,0.1,0.2c0,0.1,0,0.1-0.1,0.2l0,0c-0.1,0-0.1,0.1-0.2,0.1c-0.1,0-0.1-0.1-0.2-0.1l-0.2-0.3
				L259.4,211.5z"/>
			<polygon class="st43" points="259.4,214.1 260.4,213.5 259.9,214.8 260.1,215.3 261.9,214.2 261.6,213.7 260.7,214.3 261.2,213 
				260.9,212.5 259.1,213.6 			"/>
			<path class="st43" d="M260.4,215.9l0.4,0l0.3,0.7l-0.3,0.3l0.2,0.6l1.6-1.5l-0.2-0.5l-2.2-0.1L260.4,215.9z M261.9,216l-0.5,0.4
				l-0.2-0.4L261.9,216z"/>
			<polygon class="st43" points="262.6,217.9 261.1,218.1 261.1,218.7 262.7,218.4 262.8,219 263.3,218.9 263,217.2 262.5,217.3 			
				"/>
			
				<rect x="261.2" y="219.4" transform="matrix(-0.999 4.381700e-002 -4.381700e-002 -0.999 533.907 427.7416)" class="st43" width="2.1" height="0.6"/>
			<path class="st43" d="M263,220.8c-0.1-0.1-0.2-0.2-0.3-0.3c-0.1-0.1-0.3-0.1-0.4-0.1l0,0c-0.1,0-0.3,0-0.4,0
				c-0.1,0-0.3,0.1-0.4,0.2c-0.1,0.1-0.2,0.2-0.3,0.3c-0.1,0.1-0.1,0.3-0.1,0.4c0,0.2,0,0.3,0,0.4c0,0.1,0.1,0.3,0.2,0.4
				c0.1,0.1,0.2,0.2,0.3,0.3c0.1,0.1,0.3,0.1,0.4,0.1l0,0c0.1,0,0.3,0,0.4,0c0.1,0,0.3-0.1,0.4-0.2c0.1-0.1,0.2-0.2,0.3-0.3
				c0.1-0.1,0.1-0.3,0.1-0.4c0-0.2,0-0.3,0-0.4C263.2,221,263.1,220.9,263,220.8z M262.7,221.8c0,0.1-0.1,0.1-0.1,0.2
				c-0.1,0-0.1,0.1-0.2,0.1c-0.1,0-0.1,0-0.2,0l0,0c-0.1,0-0.1,0-0.2-0.1c-0.1,0-0.1-0.1-0.2-0.1c0-0.1-0.1-0.1-0.1-0.2
				c0-0.1,0-0.1,0-0.2c0-0.1,0-0.1,0.1-0.2c0-0.1,0.1-0.1,0.1-0.2c0.1,0,0.1-0.1,0.2-0.1c0.1,0,0.1,0,0.2,0l0,0c0.1,0,0.1,0,0.2,0.1
				c0.1,0,0.1,0.1,0.2,0.1c0,0.1,0.1,0.1,0.1,0.2c0,0.1,0,0.1,0,0.2C262.8,221.6,262.7,221.7,262.7,221.8z"/>
			<polygon class="st43" points="260.9,223.2 261.9,223.5 260.6,224.1 260.5,224.5 262.4,225.1 262.6,224.6 261.6,224.3 
				262.8,223.8 263,223.3 261,222.7 			"/>
			<path class="st43" d="M260.2,225.2l0.3,0.3l-0.4,0.7l-0.4,0l-0.3,0.5l2.2,0.2l0.3-0.5l-1.4-1.7L260.2,225.2z M260.7,225.8
				l0.4,0.5l-0.6-0.1L260.7,225.8z"/>
			<polygon class="st43" points="258.3,228 258.7,228.3 259.3,227.5 260.5,228.4 260.9,228 259.3,226.7 			"/>
		</g>
	</g>
</g>
</svg>
